<svg width="42" height="30" viewBox="0 0 42 30" fill="none" xmlns="http://www.w3.org/2000/svg">
<path d="M35.5186 17.5663C38.1674 17.5663 40.3151 15.42 40.3151 12.7712C40.3151 10.1224 38.1673 7.97461 35.5186 7.97461C32.8705 7.97461 30.7227 10.1224 30.7227 12.7712C30.7227 15.42 32.8705 17.5663 35.5186 17.5663Z" fill="#01A776"/>
<path d="M41.6615 22.19C41.4478 20.9058 40.3862 19.1084 39.5827 18.3055C39.4768 18.1991 39.0038 18.1745 38.876 18.2536C37.8991 18.8545 36.7516 19.2081 35.52 19.2081C34.2898 19.2081 33.1422 18.8545 32.1652 18.2536C32.0369 18.1745 31.5645 18.1991 31.4587 18.3055C31.2341 18.5301 30.989 18.8291 30.75 19.1759C31.3965 20.3931 31.9092 21.6862 32.0943 22.7996C32.2792 23.9158 32.2192 24.9726 31.9201 25.936C32.9824 26.3203 34.2563 26.4889 35.5199 26.4889C38.8161 26.4889 42.1892 25.3461 41.6615 22.19Z" fill="#01A776"/>
<path d="M20.732 15.5447C25.0247 15.5447 28.5051 12.0644 28.5051 7.7717C28.5051 3.48034 25.0247 0 20.732 0C16.44 0 12.9609 3.48034 12.9609 7.7717C12.9609 12.0644 16.4399 15.5447 20.732 15.5447Z" fill="#01A776"/>
<path d="M27.3178 16.7373C27.1491 16.5694 26.3832 16.5264 26.1749 16.6553C24.5904 17.6303 22.7308 18.201 20.736 18.201C18.7426 18.201 16.8822 17.6303 15.2984 16.6553C15.0902 16.5263 14.3243 16.5694 14.1556 16.7373C12.8503 18.0412 11.1299 20.9563 10.7838 23.0344C9.93043 28.1532 15.3981 30.0013 20.736 30.0013C26.0753 30.0013 31.5429 28.1532 30.6895 23.0344C30.3434 20.9563 28.623 18.0412 27.3178 16.7373Z" fill="#01A776"/>
<path d="M6.19503 17.5663C8.84317 17.5663 10.9909 15.42 10.9909 12.7712C10.9909 10.1224 8.84317 7.97461 6.19503 7.97461C3.54615 7.97461 1.39844 10.1224 1.39844 12.7712C1.39844 15.42 3.54615 17.5663 6.19503 17.5663Z" fill="#01A776"/>
<path d="M9.37747 22.7996C9.57415 21.6302 10.1291 20.2532 10.8248 18.98C10.6309 18.7151 10.4371 18.4844 10.2581 18.3055C10.1523 18.1991 9.67991 18.1745 9.55158 18.2536C8.5746 18.8545 7.42701 19.2081 6.19623 19.2081C4.96528 19.2081 3.81696 18.8545 2.84079 18.2536C2.71304 18.1745 2.23933 18.1991 2.13349 18.3055C1.32794 19.1083 0.269155 20.9058 0.0547094 22.19C-0.472279 25.3461 2.90019 26.4889 6.19623 26.4889C7.3725 26.4889 8.56034 26.3441 9.57415 26.013C9.25468 25.03 9.18706 23.9486 9.37747 22.7996Z" fill="#01A776"/>
</svg>
