<?xml version="1.0" encoding="UTF-8"?>
<svg version="1.1" xmlns="http://www.w3.org/2000/svg" width="401" height="241">
<path d="M0 0 C132.33 0 264.66 0 401 0 C401 79.53 401 159.06 401 241 C268.67 241 136.34 241 0 241 C0 161.47 0 81.94 0 0 Z " fill="#2E2C2C" transform="translate(0,0)"/>
<path d="M0 0 C62.7 0 125.4 0 190 0 C190 79.53 190 159.06 190 241 C127.3 241 64.6 241 0 241 C0 161.47 0 81.94 0 0 Z " fill="#DEE2E7" transform="translate(0,0)"/>
<path d="M0 0 C25.74 0 51.48 0 78 0 C78 79.53 78 159.06 78 241 C52.26 241 26.52 241 0 241 C0 161.47 0 81.94 0 0 Z " fill="#25201D" transform="translate(323,0)"/>
<path d="M0 0 C0 79.53 0 159.06 0 241 C-62.7 241 -125.4 241 -190 241 C-190 210.64 -190 180.28 -190 149 C-178.579054 151.2841892 -172.51761109 154.46318086 -165.43359375 163.43359375 C-163.02451047 166.06586185 -160.15364417 167.3647771 -157 169 C-156.40960938 169.48597656 -155.81921875 169.97195312 -155.2109375 170.47265625 C-152.36143563 172.44112839 -149.56929145 173.22490548 -146.25 174.1875 C-145.07953125 174.53167969 -143.9090625 174.87585938 -142.703125 175.23046875 C-141.81109375 175.48441406 -140.9190625 175.73835937 -140 176 C-140 176.66 -140 177.32 -140 178 C-139.21625 177.896875 -138.4325 177.79375 -137.625 177.6875 C-132.43369641 178.13502617 -128.50867736 180.50507972 -124 183 C-124.66 183.33 -125.32 183.66 -126 184 C-126 184.66 -126 185.32 -126 186 C-125.24460937 185.65195313 -124.48921875 185.30390625 -123.7109375 184.9453125 C-118.52072101 183.62317314 -113.90296654 184.28250569 -108.625 184.875 C-107.60277344 184.97941406 -106.58054687 185.08382812 -105.52734375 185.19140625 C-103.01679836 185.4494997 -100.508106 185.7193416 -98 186 C-98 186.66 -98 187.32 -98 188 C-97.52175781 187.67515625 -97.04351562 187.3503125 -96.55078125 187.015625 C-92.78113127 185.51469239 -89.20672828 185.71081987 -85.1875 185.75 C-84.40568359 185.74226562 -83.62386719 185.73453125 -82.81835938 185.7265625 C-77.83954981 185.74320013 -73.7203322 186.41185085 -69 188 C-69 187.34 -69 186.68 -69 186 C-65.5844193 186.42935067 -62.28730494 186.96134013 -59 188 C-57.3125 190.3125 -57.3125 190.3125 -56 193 C-54.20797472 194.42547465 -52.35754391 195.65886961 -50.42578125 196.88671875 C-49.95527344 197.25410156 -49.48476562 197.62148437 -49 198 C-49 198.66 -49 199.32 -49 200 C-48.34 200.04125 -47.68 200.0825 -47 200.125 C-43.26353933 201.21480103 -40.89134318 203.13273021 -37.8671875 205.52734375 C-34.04802709 208.53952675 -30.67618067 209.76478246 -26 211 C-26 211.66 -26 212.32 -26 213 C-17.8999298 215.6462365 -17.8999298 215.6462365 -9.65234375 215.34375 C-7.63070863 214.14547122 -7.63070863 214.14547122 -5 212 C-3.68 211.67 -2.36 211.34 -1 211 C-1 198.13 -1 185.26 -1 172 C-1.99 171.67 -2.98 171.34 -4 171 C-3.01 171 -2.02 171 -1 171 C-1 115.23 -1 59.46 -1 2 C-2.98 2.33 -4.96 2.66 -7 3 C-8.62394748 3.0620775 -10.25005297 3.08712041 -11.875 3.0625 C-12.65617188 3.05347656 -13.43734375 3.04445312 -14.2421875 3.03515625 C-14.82226562 3.02355469 -15.40234375 3.01195312 -16 3 C-16 3.66 -16 4.32 -16 5 C-16.66 5 -17.32 5 -18 5 C-18.0825 5.61875 -18.165 6.2375 -18.25 6.875 C-19 9 -19 9 -20.9375 9.9375 C-23.2584018 10.82927024 -23.2584018 10.82927024 -23.8125 13.4375 C-25 16 -25 16 -28.25 17.6875 C-31.49097881 18.82184258 -34.74259717 19.91419906 -38 21 C-38.70125 21.391875 -39.4025 21.78375 -40.125 22.1875 C-42.49598042 23.21492485 -43.57841918 22.70838775 -46 22 C-42.27437177 19.16322724 -38.59063889 16.37188374 -34.625 13.875 C-32.03719953 12.02657109 -31.05312318 10.94874492 -30 8 C-29.34 8 -28.68 8 -28 8 C-27.731875 7.05125 -27.46375 6.1025 -27.1875 5.125 C-23.09434375 -5.64646381 -10.74301105 0 0 0 Z " fill="#DCE1E7" transform="translate(190,0)"/>
<path d="M0 0 C12.87 0 25.74 0 39 0 C39 43.56 39 87.12 39 132 C43.29 132 47.58 132 52 132 C52 133.98 52 135.96 52 138 C47.71 138 43.42 138 39 138 C39 171.99 39 205.98 39 241 C26.13 241 13.26 241 0 241 C0 161.47 0 81.94 0 0 Z " fill="#323335" transform="translate(190,0)"/>
<path d="M0 0 C4.29 0 8.58 0 13 0 C13 79.53 13 159.06 13 241 C8.71 241 4.42 241 0 241 C0 161.47 0 81.94 0 0 Z " fill="#DDE1E6" transform="translate(388,0)"/>
<path d="M0 0 C11.420946 2.2841892 17.48238891 5.46318086 24.56640625 14.43359375 C26.97548953 17.06586185 29.84635583 18.3647771 33 20 C33.59039062 20.48597656 34.18078125 20.97195312 34.7890625 21.47265625 C37.63856437 23.44112839 40.43070855 24.22490548 43.75 25.1875 C44.92046875 25.53167969 46.0909375 25.87585938 47.296875 26.23046875 C48.63492188 26.61138672 48.63492188 26.61138672 50 27 C50 27.66 50 28.32 50 29 C50.78375 28.896875 51.5675 28.79375 52.375 28.6875 C57.56630359 29.13502617 61.49132264 31.50507972 66 34 C65.01 34.495 65.01 34.495 64 35 C64 35.66 64 36.32 64 37 C64.75539063 36.65195313 65.51078125 36.30390625 66.2890625 35.9453125 C71.47927899 34.62317314 76.09703346 35.28250569 81.375 35.875 C82.90833984 36.03162109 82.90833984 36.03162109 84.47265625 36.19140625 C86.98320164 36.4494997 89.491894 36.7193416 92 37 C92 37.66 92 38.32 92 39 C92.71736328 38.51273438 92.71736328 38.51273438 93.44921875 38.015625 C97.21886873 36.51469239 100.79327172 36.71081987 104.8125 36.75 C105.59431641 36.74226563 106.37613281 36.73453125 107.18164062 36.7265625 C112.16045019 36.74320013 116.2796678 37.41185085 121 39 C121 38.34 121 37.68 121 37 C122.62818946 37.22830701 124.2526349 37.48343576 125.875 37.75 C126.77992187 37.88921875 127.68484375 38.0284375 128.6171875 38.171875 C131 39 131 39 132.3203125 40.890625 C133 43 133 43 133 46 C131.68 46 130.36 46 129 46 C128.67 46.99 128.34 47.98 128 49 C124.37 49 120.74 49 117 49 C117 48.34 117 47.68 117 47 C114.37405216 47.1136515 111.74988453 47.24039054 109.125 47.375 C108.37863281 47.4059375 107.63226563 47.436875 106.86328125 47.46875 C102.46526812 47.55643831 102.46526812 47.55643831 99 50 C99.33 50.99 99.66 51.98 100 53 C100.66 53 101.32 53 102 53 C103.0625 55.375 103.0625 55.375 104 58 C103.505 58.99 103.505 58.99 103 60 C103.66 60 104.32 60 105 60 C105 60.66 105 61.32 105 62 C106.98 62.495 106.98 62.495 109 63 C109 63.66 109 64.32 109 65 C110.98 65.66 112.96 66.32 115 67 C115 68.98 115 70.96 115 73 C113.53815942 72.77139942 112.08044581 72.51629608 110.625 72.25 C109.81289062 72.11078125 109.00078125 71.9715625 108.1640625 71.828125 C106 71 106 71 104.7109375 69.171875 C104 67 104 67 104 63 C100.34543185 62.24758891 96.68266103 61.59950296 93 61 C93 62.65 93 64.3 93 66 C91.35 65.67 89.7 65.34 88 65 C88 63.68 88 62.36 88 61 C87.22914062 60.97421875 86.45828125 60.9484375 85.6640625 60.921875 C84.66117187 60.86515625 83.65828125 60.8084375 82.625 60.75 C81.62726563 60.70359375 80.62953125 60.6571875 79.6015625 60.609375 C78.31378906 60.30773437 78.31378906 60.30773437 77 60 C75.8984375 58.078125 75.8984375 58.078125 75 56 C71.54529407 53.47571838 67.85103326 53.66737822 63.6875 53.5 C50.93328115 52.98415697 50.93328115 52.98415697 46.625 48.5625 C43.96221516 45.96311479 42.87243611 45.48060982 39.4375 44.5 C35.08999519 43.23643949 33.79300418 41.57853661 31 38 C28.85500003 36.84231163 26.67030866 35.94266105 24.41015625 35.03125 C22.04430854 34.0189586 19.95024194 32.82905959 17.75 31.5 C12.16056779 28.29327424 6.17503787 26.75501076 0 25 C0 16.75 0 8.5 0 0 Z " fill="#C8D0D9" transform="translate(0,149)"/>
<path d="M0 0 C2.31 0 4.62 0 7 0 C7 79.53 7 159.06 7 241 C4.69 241 2.38 241 0 241 C0 161.47 0 81.94 0 0 Z " fill="#37302C" transform="translate(381,0)"/>
<path d="M0 0 C3.96 0 7.92 0 12 0 C12 35.64 12 71.28 12 108 C11.67 107.01 11.34 106.02 11 105 C8.99983534 103.79117904 8.99983534 103.79117904 7 103 C7 102.34 7 101.68 7 101 C6.34 101 5.68 101 5 101 C4.54625 99.865625 4.0925 98.73125 3.625 97.5625 C2.42904194 93.95278308 2.42904194 93.95278308 0 93 C0 62.31 0 31.62 0 0 Z " fill="#DDE1E7" transform="translate(389,0)"/>
<path d="M0 0 C4.62 0 9.24 0 14 0 C14 8.58 14 17.16 14 26 C19.61 26 25.22 26 31 26 C31 27.65 31 29.3 31 31 C25.39 31 19.78 31 14 31 C14 41.89 14 52.78 14 64 C9.38 64 4.76 64 0 64 C0 42.88 0 21.76 0 0 Z " fill="#A29FA3" transform="translate(210,106)"/>
<path d="M0 0 C8.89312951 1.27044707 8.89312951 1.27044707 12 4 C12.60127258 6.90434265 12.60127258 6.90434265 12.56762695 10.4909668 C12.56872215 11.47185776 12.56872215 11.47185776 12.56983948 12.4725647 C12.56635811 14.63229579 12.52747859 16.789865 12.48828125 18.94921875 C12.47895489 20.44707562 12.47183794 21.94494774 12.46684265 23.44282532 C12.44775833 27.38386196 12.39864687 31.32397611 12.34332275 35.26464844 C12.29216017 39.28633138 12.26933511 43.3081635 12.24414062 47.33007812 C12.19052804 55.22047527 12.10519963 63.11012286 12 71 C8.04 71 4.08 71 0 71 C0 47.57 0 24.14 0 0 Z " fill="#DFE4E9" transform="translate(389,170)"/>
<path d="M0 0 C0 79.53 0 159.06 0 241 C-0.33 241 -0.66 241 -1 241 C-1 231.76 -1 222.52 -1 213 C-5.47402851 215.58476771 -5.47402851 215.58476771 -9.94458008 218.17553711 C-12.60783616 219.70586708 -15.07851544 221.02617181 -18 222 C-18 222.99 -18 223.98 -18 225 C-17.00419922 225.12955078 -17.00419922 225.12955078 -15.98828125 225.26171875 C-10.206839 226.18168547 -6.63115756 227.037418 -3 232 C-3 232.99 -3 233.98 -3 235 C-4.9375 234.625 -4.9375 234.625 -7 234 C-7.33 233.34 -7.66 232.68 -8 232 C-10.44619143 231.38185224 -10.44619143 231.38185224 -13.3125 231 C-16.93835251 230.45781645 -19.80276279 229.82265304 -23 228 C-22.45276317 224.62537285 -21.9451 222.91765 -20 220 C-20.495 219.01 -20.495 219.01 -21 218 C-20.67 217.34 -20.34 216.68 -20 216 C-21.65 216.33 -23.3 216.66 -25 217 C-25 216.34 -25 215.68 -25 215 C-25.66 215 -26.32 215 -27 215 C-27 214.34 -27 213.68 -27 213 C-26.44957031 213.13792969 -25.89914063 213.27585938 -25.33203125 213.41796875 C-24.56246094 213.61003906 -23.79289062 213.80210937 -23 214 C-22.15824219 214.22300781 -21.31648438 214.44601563 -20.44921875 214.67578125 C-14.05697198 216.2460871 -14.05697198 216.2460871 -8.0625 214.1875 C-7.051875 213.465625 -6.04125 212.74375 -5 212 C-3.68 211.67 -2.36 211.34 -1 211 C-1 198.13 -1 185.26 -1 172 C-1.99 171.67 -2.98 171.34 -4 171 C-3.01 171 -2.02 171 -1 171 C-1 115.23 -1 59.46 -1 2 C-2.98 2.33 -4.96 2.66 -7 3 C-8.62394748 3.0620775 -10.25005297 3.08712041 -11.875 3.0625 C-12.65617187 3.05347656 -13.43734375 3.04445312 -14.2421875 3.03515625 C-14.82226562 3.02355469 -15.40234375 3.01195312 -16 3 C-16 3.66 -16 4.32 -16 5 C-16.66 5 -17.32 5 -18 5 C-18.0825 5.61875 -18.165 6.2375 -18.25 6.875 C-19 9 -19 9 -20.9375 9.9375 C-23.2584018 10.82927024 -23.2584018 10.82927024 -23.8125 13.4375 C-25 16 -25 16 -28.25 17.6875 C-31.49097881 18.82184258 -34.74259717 19.91419906 -38 21 C-38.70125 21.391875 -39.4025 21.78375 -40.125 22.1875 C-42.49598042 23.21492485 -43.57841918 22.70838775 -46 22 C-42.27437177 19.16322724 -38.59063889 16.37188374 -34.625 13.875 C-32.03719953 12.02657109 -31.05312318 10.94874492 -30 8 C-29.34 8 -28.68 8 -28 8 C-27.731875 7.05125 -27.46375 6.1025 -27.1875 5.125 C-23.09434375 -5.64646381 -10.74301105 0 0 0 Z " fill="#A8ACB0" transform="translate(190,0)"/>
<path d="M0 0 C6.35894648 1.35296734 10.73669245 4.27695804 16 8 C23.81476422 13.42003941 23.81476422 13.42003941 32.125 18 C34.17567074 19.09369106 35.51444384 20.21733261 37 22 C37 22.66 37 23.32 37 24 C38.65 24.33 40.3 24.66 42 25 C42 25.99 42 26.98 42 28 C43.051875 28.103125 44.10375 28.20625 45.1875 28.3125 C48.92118483 28.98578743 50.8965891 29.9310594 54 32 C54.99 32.33 55.98 32.66 57 33 C57 33.66 57 34.32 57 35 C58.2065625 35.433125 58.2065625 35.433125 59.4375 35.875 C62 37 62 37 63 39 C63.99 39.66 64.98 40.32 66 41 C60.24953597 41.11980133 54.63560419 41.22104757 49 40 C47.31183067 38.35511706 45.64646685 36.68662458 44 35 C41.81853813 34.13758694 41.81853813 34.13758694 39.4375 33.5 C35.08999519 32.23643949 33.79300418 30.57853661 31 27 C28.85500003 25.84231163 26.67030866 24.94266105 24.41015625 24.03125 C22.04430854 23.0189586 19.95024194 21.82905959 17.75 20.5 C12.16056779 17.29327424 6.17503787 15.75501076 0 14 C0 9.38 0 4.76 0 0 Z " fill="#9EA6B1" transform="translate(0,160)"/>
<path d="M0 0 C0.33 0 0.66 0 1 0 C1 48.51 1 97.02 1 147 C4.96 147.66 8.92 148.32 13 149 C13 157.25 13 165.5 13 174 C9 173 9 173 1 170 C1 193.43 1 216.86 1 241 C0.67 241 0.34 241 0 241 C0 161.47 0 81.94 0 0 Z " fill="#848386" transform="translate(388,0)"/>
<path d="M0 0 C0.66 0 1.32 0 2 0 C2.15050733 29.11337239 2.29561924 58.22676728 2.4332476 87.34020354 C2.44951769 90.78092039 2.46583356 94.22163702 2.48217773 97.66235352 C2.48543066 98.3473095 2.48868358 99.03226548 2.49203508 99.73797771 C2.54474619 110.81418861 2.60116204 121.89037768 2.6589582 132.96656308 C2.71822347 144.34017397 2.77340312 155.71379838 2.82505554 167.08744687 C2.85418028 173.47228441 2.88514194 179.85710099 2.92053413 186.24190712 C2.95381154 192.25575093 2.98213086 198.26959803 3.00670624 204.28348351 C3.01657185 206.48646303 3.02822321 208.68943543 3.04183006 210.89239502 C3.06019699 213.91010122 3.07201813 216.92776775 3.08229065 219.94551086 C3.08909444 220.80838772 3.09589823 221.67126457 3.10290819 222.5602892 C3.1141358 228.75271332 2.64742962 234.84302807 2 241 C1.34 241 0.68 241 0 241 C-1.35642651 229.56254282 -1.09317768 218.11243463 -1.02172852 206.61621094 C-1.01157148 204.35831396 -1.00187938 202.10041485 -0.99261475 199.84251404 C-0.96627639 193.74214996 -0.9334686 187.6418361 -0.89946485 181.54151058 C-0.86497973 175.15539728 -0.83649219 168.76925723 -0.80735779 162.38311768 C-0.75769766 151.67384941 -0.70436788 140.96460674 -0.64819336 130.25537109 C-0.59037237 119.23031723 -0.5347868 108.2052558 -0.48217773 97.18017578 C-0.47892802 96.49930648 -0.4756783 95.81843717 -0.4723301 95.11693546 C-0.45603908 91.70083093 -0.43979169 88.28472619 -0.42356598 84.86862135 C-0.28914073 56.57904585 -0.14700821 28.28951271 0 0 Z " fill="#1E1D1B" transform="translate(204,0)"/>
<path d="M0 0 C1.16015625 0.63228516 1.16015625 0.63228516 2.34375 1.27734375 C8.42147519 4.47416702 13.1443688 6.66283781 20 7 C21.58446443 7.15554642 23.16784564 7.32249 24.75 7.5 C25.46671875 7.5721875 26.1834375 7.644375 26.921875 7.71875 C29.00339983 8.00046013 30.97371652 8.45235582 33 9 C33.33 8.01 33.66 7.02 34 6 C35.39572052 5.97263293 36.79160221 5.95344011 38.1875 5.9375 C38.96480469 5.92589844 39.74210937 5.91429687 40.54296875 5.90234375 C43 6 43 6 48 7 C48 11.62 48 16.24 48 21 C41.35227273 22.10795455 41.35227273 22.10795455 37.875 19.6875 C33.28279908 16.88115499 29.1756327 16.15889686 23.88671875 15.46875 C21.26634193 15.04324903 19.24425032 14.39097305 16.8125 13.375 C11.69161098 11.46408002 6.49205464 11.8654333 1.11450195 12.19873047 C-4.21766881 12.41547044 -6.87105645 11.30197346 -11 8 C-11.60328125 7.43667969 -12.2065625 6.87335938 -12.828125 6.29296875 C-16.26831353 4.24494285 -19.81543166 4.42668731 -23.75 4.3125 C-24.93916016 4.26125977 -24.93916016 4.26125977 -26.15234375 4.20898438 C-28.10107504 4.12680896 -30.05051362 4.06171955 -32 4 C-32 3.34 -32 2.68 -32 2 C-15.57509461 1.37096107 -15.57509461 1.37096107 -9.1953125 6.0625 C-5.37708154 8.37771095 -2.4394488 8.46739471 1.875 8.25 C2.90753906 8.22292969 2.90753906 8.22292969 3.9609375 8.1953125 C5.6412381 8.14863748 7.32081163 8.07690939 9 8 C8.02546875 7.38511719 8.02546875 7.38511719 7.03125 6.7578125 C6.1959375 6.21898437 5.360625 5.68015625 4.5 5.125 C3.6646875 4.59132812 2.829375 4.05765625 1.96875 3.5078125 C1.3190625 3.01023438 0.669375 2.51265625 0 2 C0 1.34 0 0.68 0 0 Z " fill="#CDD3DB" transform="translate(141,150)"/>
<path d="M0 0 C1.19302734 -0.01836914 1.19302734 -0.01836914 2.41015625 -0.03710938 C7.45641572 -0.04953859 11.59299706 0.56572152 16.375 2.1875 C16.375 1.5275 16.375 0.8675 16.375 0.1875 C18.00318946 0.41580701 19.6276349 0.67093576 21.25 0.9375 C22.60738281 1.14632812 22.60738281 1.14632812 23.9921875 1.359375 C26.375 2.1875 26.375 2.1875 27.6953125 4.078125 C28.375 6.1875 28.375 6.1875 28.375 9.1875 C27.055 9.1875 25.735 9.1875 24.375 9.1875 C24.045 10.1775 23.715 11.1675 23.375 12.1875 C19.745 12.1875 16.115 12.1875 12.375 12.1875 C12.375 11.5275 12.375 10.8675 12.375 10.1875 C6.765 10.1875 1.155 10.1875 -4.625 10.1875 C-4.625 9.5275 -4.625 8.8675 -4.625 8.1875 C-5.615 8.1875 -6.605 8.1875 -7.625 8.1875 C-7.955 8.8475 -8.285 9.5075 -8.625 10.1875 C-10.125 8.8125 -10.125 8.8125 -11.625 7.1875 C-11.625 6.5275 -11.625 5.8675 -11.625 5.1875 C-12.615 5.1875 -13.605 5.1875 -14.625 5.1875 C-14.955 4.5275 -15.285 3.8675 -15.625 3.1875 C-16.285 3.8475 -16.945 4.5075 -17.625 5.1875 C-18.945 5.1875 -20.265 5.1875 -21.625 5.1875 C-21.955 3.8675 -22.285 2.5475 -22.625 1.1875 C-21.69816406 1.19910156 -20.77132812 1.21070313 -19.81640625 1.22265625 C-18.02009766 1.23619141 -18.02009766 1.23619141 -16.1875 1.25 C-14.39505859 1.26740234 -14.39505859 1.26740234 -12.56640625 1.28515625 C-8.42036967 1.14750563 -4.53089238 0.00356763 0 0 Z " fill="#C0C7D1" transform="translate(104.625,185.8125)"/>
<path d="M0 0 C3.63 0 7.26 0 11 0 C11 7.92 11 15.84 11 24 C8.36 24 5.72 24 3 24 C2.67 25.65 2.34 27.3 2 29 C4.97 29 7.94 29 11 29 C11 30.65 11 32.3 11 34 C7.37 34 3.74 34 0 34 C0 22.78 0 11.56 0 0 Z " fill="#161413" transform="translate(212,108)"/>
<path d="M0 0 C1.33333333 0.66666667 2.66666667 1.33333333 4 2 C4.680625 2.309375 5.36125 2.61875 6.0625 2.9375 C8.12509594 4.068601 9.49629098 5.19554917 11 7 C11 7.66 11 8.32 11 9 C12.65 9.33 14.3 9.66 16 10 C16 10.99 16 11.98 16 13 C17.051875 13.103125 18.10375 13.20625 19.1875 13.3125 C22.92118483 13.98578743 24.8965891 14.9310594 28 17 C28.99 17.33 29.98 17.66 31 18 C31 18.66 31 19.32 31 20 C32.2065625 20.433125 32.2065625 20.433125 33.4375 20.875 C36 22 36 22 37 24 C37.99 24.66 38.98 25.32 40 26 C34.24953597 26.11980133 28.63560419 26.22104757 23 25 C21.31183067 23.35511706 19.64646685 21.68662458 18 20 C15.81853813 19.13758694 15.81853813 19.13758694 13.4375 18.5 C9.20233339 17.26386514 7.4492969 15.76814907 5 12 C4.01769502 10.9826127 3.02530403 9.97403883 2 9 C3.32 8.67 4.64 8.34 6 8 C5.38125 7.608125 4.7625 7.21625 4.125 6.8125 C1.67503632 4.72282509 0.98120002 3.02536673 0 0 Z " fill="#A9B0BA" transform="translate(26,175)"/>
<path d="M0 0 C0.98291016 0.00644531 1.96582031 0.01289062 2.97851562 0.01953125 C4.00267578 0.03628906 5.02683594 0.05304687 6.08203125 0.0703125 C7.11779297 0.07933594 8.15355469 0.08835938 9.22070312 0.09765625 C11.7788781 0.1212339 14.33658873 0.1541422 16.89453125 0.1953125 C16.89453125 0.8553125 16.89453125 1.5153125 16.89453125 2.1953125 C11.84450903 3.23121449 7.02036736 3.29782922 1.89453125 3.1953125 C1.89453125 3.8553125 1.89453125 4.5153125 1.89453125 5.1953125 C1.23453125 5.1953125 0.57453125 5.1953125 -0.10546875 5.1953125 C-0.18796875 5.8140625 -0.27046875 6.4328125 -0.35546875 7.0703125 C-1.10546875 9.1953125 -1.10546875 9.1953125 -3.04296875 10.1328125 C-5.36387055 11.02458274 -5.36387055 11.02458274 -5.91796875 13.6328125 C-7.10546875 16.1953125 -7.10546875 16.1953125 -10.35546875 17.8828125 C-13.59644756 19.01715508 -16.84806592 20.10951156 -20.10546875 21.1953125 C-20.80671875 21.5871875 -21.50796875 21.9790625 -22.23046875 22.3828125 C-24.60144917 23.41023735 -25.68388793 22.90370025 -28.10546875 22.1953125 C-24.37984052 19.35853974 -20.69610764 16.56719624 -16.73046875 14.0703125 C-14.14266828 12.22188359 -13.15859193 11.14405742 -12.10546875 8.1953125 C-11.44546875 8.1953125 -10.78546875 8.1953125 -10.10546875 8.1953125 C-9.83734375 7.2465625 -9.56921875 6.2978125 -9.29296875 5.3203125 C-7.40000244 0.33882222 -4.91944359 -0.05687218 0 0 Z " fill="#C6CCD6" transform="translate(172.10546875,-0.1953125)"/>
<path d="M0 0 C9.70803568 1.01211436 17.00951651 5.08382801 23.1875 12.6875 C23.64253906 13.26371094 24.09757812 13.83992187 24.56640625 14.43359375 C26.97548953 17.06586185 29.84635583 18.3647771 33 20 C33.639375 20.515625 34.27875 21.03125 34.9375 21.5625 C38.05230149 23.73342225 41.42207006 24.74772452 45 26 C41.54851775 27.15049408 40.89400468 26.81766391 37.625 25.5625 C34.2734017 24.35964253 31.60461639 23.65116616 28 24 C28 23.34 28 22.68 28 22 C27.34 22 26.68 22 26 22 C26 21.34 26 20.68 26 20 C25.34 20 24.68 20 24 20 C24 19.34 24 18.68 24 18 C23.443125 17.87625 22.88625 17.7525 22.3125 17.625 C19.77885636 16.94023145 17.42078968 16.00866237 15 15 C15 14.34 15 13.68 15 13 C13.92685547 12.59201172 13.92685547 12.59201172 12.83203125 12.17578125 C9.99793015 10.99914065 7.36275339 9.68960524 4.6875 8.1875 C3.80449219 7.70667969 2.92148437 7.22585937 2.01171875 6.73046875 C0 5 0 5 -0.29296875 2.30078125 C-0.19628906 1.54152344 -0.09960938 0.78226563 0 0 Z " fill="#B2B9C2" transform="translate(0,149)"/>
<path d="M0 0 C0 9.24 0 18.48 0 28 C-0.66 28 -1.32 28 -2 28 C-2.02578125 27.38511719 -2.0515625 26.77023438 -2.078125 26.13671875 C-2.24965109 21.03484954 -2.24965109 21.03484954 -5.0625 17.0625 C-5.701875 16.711875 -6.34125 16.36125 -7 16 C-7 15.34 -7 14.68 -7 14 C-10.96 13.67 -14.92 13.34 -19 13 C-18.34 12.67 -17.68 12.34 -17 12 C-17 11.01 -17 10.02 -17 9 C-14.98828125 7.5 -14.98828125 7.5 -12.3125 6 C-11.44238281 5.505 -10.57226562 5.01 -9.67578125 4.5 C-8.79277344 4.005 -7.90976563 3.51 -7 3 C-6.10667969 2.443125 -5.21335938 1.88625 -4.29296875 1.3125 C-2 0 -2 0 0 0 Z " fill="#D5DCE2" transform="translate(189,213)"/>
<path d="M0 0 C4.29 0 8.58 0 13 0 C13 8.58 13 17.16 13 26 C18.61 26 24.22 26 30 26 C30 27.65 30 29.3 30 31 C10.99544419 32.33257403 10.99544419 32.33257403 3 31 C3 29.35 3 27.7 3 26 C6.67568464 25.08107884 8.16380575 25.04095144 12 26 C12 18.08 12 10.16 12 2 C8.04 2 4.08 2 0 2 C0 1.34 0 0.68 0 0 Z " fill="#ABA8AB" transform="translate(211,106)"/>
<path d="M0 0 C3 1 3 1 4.1875 2.875 C5 5 5 5 5 8 C5.66 8 6.32 8 7 8 C9.62788203 10.30935087 10.87994369 11.63983107 12 15 C12.12781786 17.67394964 12.04391871 20.32095857 12 23 C9.9375 23.75 9.9375 23.75 7 24 C3.535 22.02 3.535 22.02 0 20 C0 13.4 0 6.8 0 0 Z " fill="#D9DEE4" transform="translate(389,93)"/>
<path d="M0 0 C0.99 0 1.98 0 3 0 C3 0.66 3 1.32 3 2 C0.73103368 3.31582063 -1.54003187 4.62775236 -3.8125 5.9375 C-4.45509766 6.31068359 -5.09769531 6.68386719 -5.75976562 7.06835938 C-8.48316424 8.63466635 -11.01108122 10.00369374 -14 11 C-14 11.99 -14 12.98 -14 14 C-13.33613281 14.08636719 -12.67226562 14.17273438 -11.98828125 14.26171875 C-6.206839 15.18168547 -2.63115756 16.037418 1 21 C1 21.99 1 22.98 1 24 C-0.9375 23.625 -0.9375 23.625 -3 23 C-3.33 22.34 -3.66 21.68 -4 21 C-6.44619143 20.38185224 -6.44619143 20.38185224 -9.3125 20 C-12.93835251 19.45781645 -15.80276279 18.82265304 -19 17 C-18.45276317 13.62537285 -17.9451 11.91765 -16 9 C-16.33 8.34 -16.66 7.68 -17 7 C-16.67 6.34 -16.34 5.68 -16 5 C-17.65 5.33 -19.3 5.66 -21 6 C-21 5.34 -21 4.68 -21 4 C-21.66 4 -22.32 4 -23 4 C-23 3.34 -23 2.68 -23 2 C-22.44957031 2.13792969 -21.89914063 2.27585938 -21.33203125 2.41796875 C-20.56246094 2.61003906 -19.79289063 2.80210937 -19 3 C-17.73736328 3.33451172 -17.73736328 3.33451172 -16.44921875 3.67578125 C-9.97823718 5.23094242 -9.97823718 5.23094242 -3.875 3.1875 C-1.23816878 1.28302454 -1.23816878 1.28302454 0 0 Z " fill="#C0C7CF" transform="translate(186,211)"/>
<path d="M0 0 C0 3.96 0 7.92 0 12 C-6.55990608 11.3692398 -6.55990608 11.3692398 -8.72265625 9.5546875 C-11.95551551 7.34769267 -15.39549533 7.00714337 -19.1875 6.4375 C-21.82446282 6.03376554 -24.38819733 5.56367719 -27 5 C-27.33 4.34 -27.66 3.68 -28 3 C-25.39576408 2.97302863 -22.79180756 2.95317511 -20.1875 2.9375 C-19.44951172 2.92912109 -18.71152344 2.92074219 -17.95117188 2.91210938 C-14.70077932 2.89740172 -12.10595105 2.96468298 -9 4 C-8.67 3.01 -8.34 2.02 -8 1 C-5 0 -5 0 0 0 Z " fill="#D7DDE3" transform="translate(189,158)"/>
<path d="M0 0 C1.62818946 0.22830701 3.2526349 0.48343576 4.875 0.75 C6.23238281 0.95882812 6.23238281 0.95882812 7.6171875 1.171875 C10 2 10 2 11.3203125 3.890625 C12 6 12 6 12 9 C10.68 9 9.36 9 8 9 C7.67 9.99 7.34 10.98 7 12 C3.37 12 -0.26 12 -4 12 C-3.67 11.34 -3.34 10.68 -3 10 C-1.02 10 0.96 10 3 10 C3 8.68 3 7.36 3 6 C2.38125 5.71125 1.7625 5.4225 1.125 5.125 C-1 4 -1 4 -3 2 C-2.01 2 -1.02 2 0 2 C0 1.34 0 0.68 0 0 Z " fill="#C6CCD7" transform="translate(121,186)"/>
<path d="M0 0 C5.94 0.99 5.94 0.99 12 2 C12 5.3 12 8.6 12 12 C7.03460494 11.52710523 3.73175222 10.37634724 0 7 C-0.375 3.25 -0.375 3.25 0 0 Z " fill="#BFC5D0" transform="translate(389,147)"/>
<path d="M0 0 C0.33 0 0.66 0 1 0 C1 7.92 1 15.84 1 24 C0.34 23.67 -0.32 23.34 -1 23 C-1.4140625 20.93359375 -1.4140625 20.93359375 -1.625 18.4375 C-1.69976562 17.61121094 -1.77453125 16.78492187 -1.8515625 15.93359375 C-1.90054688 15.29550781 -1.94953125 14.65742187 -2 14 C-3.32 14 -4.64 14 -6 14 C-6 10.37 -6 6.74 -6 3 C-4.02 3 -2.04 3 0 3 C0 2.01 0 1.02 0 0 Z " fill="#424244" transform="translate(222,108)"/>
<path d="M0 0 C3.7910119 1.44950455 7.3874638 3.15172566 11 5 C11 5.66 11 6.32 11 7 C11.804375 7.28875 12.60875 7.5775 13.4375 7.875 C16 9 16 9 17 11 C9.29711007 11.6212008 4.6276327 9.8741903 -2 6 C-1.125 1.125 -1.125 1.125 0 0 Z " fill="#949AA4" transform="translate(16,173)"/>
<path d="M0 0 C0 0.66 0 1.32 0 2 C3.465 3.98 3.465 3.98 7 6 C7 5.01 7 4.02 7 3 C9.31 3.33 11.62 3.66 14 4 C14 3.34 14 2.68 14 2 C14.99 2 15.98 2 17 2 C17 3.32 17 4.64 17 6 C13.71303767 6.79953138 12.28976808 7.09658936 9 6 C9 7.65 9 9.3 9 11 C7.35 10.67 5.7 10.34 4 10 C4 8.68 4 7.36 4 6 C3.278125 5.855625 2.55625 5.71125 1.8125 5.5625 C-0.79166667 5.04166667 -3.39583333 4.52083333 -6 4 C-6 2.68 -6 1.36 -6 0 C-3.50907189 -1.24546405 -2.58919267 -0.7767578 0 0 Z " fill="#C3C9D2" transform="translate(84,204)"/>
<path d="M0 0 C3.3 0 6.6 0 10 0 C10 0.99 10 1.98 10 3 C8.02 3 6.04 3 4 3 C4.01160156 3.78246094 4.02320313 4.56492187 4.03515625 5.37109375 C4.04417969 6.38300781 4.05320313 7.39492187 4.0625 8.4375 C4.07410156 9.44683594 4.08570313 10.45617187 4.09765625 11.49609375 C4 14 4 14 3 15 C2.76924918 16.34747084 2.58846937 17.70377565 2.4375 19.0625 C2.293125 20.361875 2.14875 21.66125 2 23 C1.34 23 0.68 23 0 23 C0 15.41 0 7.82 0 0 Z " fill="#201F1D" transform="translate(212,108)"/>
<path d="M0 0 C0.99 0.99 1.98 1.98 3 3 C10.06904551 6.51111532 18.27973952 7.06654034 26 8 C26 8.33 26 8.66 26 9 C24.96101563 8.97679688 23.92203125 8.95359375 22.8515625 8.9296875 C14.93038249 8.8080571 7.74129037 9.06467741 0 11 C0 7.37 0 3.74 0 0 Z " fill="#C7CDD5" transform="translate(0,105)"/>
<path d="M0 0 C5.75 0.875 5.75 0.875 8 2 C8 2.66 8 3.32 8 4 C9.093125 3.814375 10.18625 3.62875 11.3125 3.4375 C15 3 15 3 18 4 C18 4.66 18 5.32 18 6 C19.98 6.66 21.96 7.32 24 8 C24 8.66 24 9.32 24 10 C12.94364351 10.79351841 12.94364351 10.79351841 9.25 7.6875 C8.5075 6.800625 7.765 5.91375 7 5 C4.37825511 3.73125389 1.7827758 2.89614814 -1 2 C-0.67 1.34 -0.34 0.68 0 0 Z " fill="#99A0AA" transform="translate(37,190)"/>
<path d="M0 0 C7.95271438 -0.30457204 16.31670343 -0.55575681 23.0625 4.125 C26.625105 6.39900319 28.63640693 6.2760283 32.7421875 6.07421875 C35.92718308 5.96952166 38.86458527 6.46631239 42 7 C42 7.66 42 8.32 42 9 C39.62536492 9.27794711 37.2545801 9.52273673 34.875 9.75 C33.87726563 9.87181641 33.87726563 9.87181641 32.859375 9.99609375 C27.5860335 10.46138859 25.06996721 9.25136191 21 6 C20.39671875 5.43667969 19.7934375 4.87335938 19.171875 4.29296875 C15.73168647 2.24494285 12.18456834 2.42668731 8.25 2.3125 C7.06083984 2.26125977 7.06083984 2.26125977 5.84765625 2.20898438 C3.89892496 2.12680896 1.94948638 2.06171955 0 2 C0 1.34 0 0.68 0 0 Z " fill="#B8BEC7" transform="translate(109,152)"/>
<path d="M0 0 C0.99 0.33 1.98 0.66 3 1 C2.67 1.66 2.34 2.32 2 3 C3.5778125 2.9690625 3.5778125 2.9690625 5.1875 2.9375 C12.89133304 3.06379234 12.89133304 3.06379234 16.8125 6.375 C19 9 19 9 19 12 C17.0625 11.625 17.0625 11.625 15 11 C14.67 10.34 14.34 9.68 14 9 C11.55380857 8.38185224 11.55380857 8.38185224 8.6875 8 C5.06164749 7.45781645 2.19723721 6.82265304 -1 5 C-0.67 3.35 -0.34 1.7 0 0 Z " fill="#B8BEC8" transform="translate(168,223)"/>
<path d="M0 0 C0.804375 0.721875 1.60875 1.44375 2.4375 2.1875 C2.4375 3.5075 2.4375 4.8275 2.4375 6.1875 C1.4475 6.1875 0.4575 6.1875 -0.5625 6.1875 C-0.64371094 5.56359375 -0.72492188 4.9396875 -0.80859375 4.296875 C-1.35679444 2.0382553 -1.35679444 2.0382553 -3.41015625 1.140625 C-4.14105469 0.90859375 -4.87195313 0.6765625 -5.625 0.4375 C-6.35847656 0.19515625 -7.09195313 -0.0471875 -7.84765625 -0.296875 C-8.41355469 -0.46703125 -8.97945312 -0.6371875 -9.5625 -0.8125 C-8.9025 1.1675 -8.2425 3.1475 -7.5625 5.1875 C-10.5325 4.8575 -13.5025 4.5275 -16.5625 4.1875 C-17.5625 -0.6875 -17.5625 -0.6875 -17.5625 -1.8125 C-11.41111384 -3.5983863 -5.63956403 -2.86925188 0 0 Z " fill="#A0A7B3" transform="translate(121.5625,189.8125)"/>
<path d="M0 0 C6.93 0 13.86 0 21 0 C21 0.66 21 1.32 21 2 C15.94997778 3.03590199 11.12583611 3.10251672 6 3 C6 3.66 6 4.32 6 5 C5.34 5 4.68 5 4 5 C3.896875 5.61875 3.79375 6.2375 3.6875 6.875 C3 9 3 9 0 11 C-1 8 -1 8 -0.0625 5.8125 C0.288125 5.214375 0.63875 4.61625 1 4 C0.34 4 -0.32 4 -1 4 C-0.67 2.68 -0.34 1.36 0 0 Z " fill="#C6CCD5" transform="translate(168,0)"/>
<path d="M0 0 C8.19861072 1.74438526 15.24298293 5.9678878 20 13 C19.67 13.66 19.34 14.32 19 15 C15.72078615 13.61264029 13.32695427 11.61368679 10.65234375 9.29296875 C8.92711759 7.94296908 7.18654965 6.95610096 5.25 5.9375 C2.14487322 4.08636673 1.07857442 3.35556485 0 0 Z " fill="#BCC2CC" transform="translate(4,150)"/>
<path d="M0 0 C3.94925596 4.53472517 4.02534221 9.16284461 4 15 C3.26302171 18.00055447 2.36513234 20.26973532 1 23 C0.34 23 -0.32 23 -1 23 C-1.02894547 19.54168414 -1.04678 16.08339928 -1.0625 12.625 C-1.07087891 11.64015625 -1.07925781 10.6553125 -1.08789062 9.640625 C-1.09111328 8.69960937 -1.09433594 7.75859375 -1.09765625 6.7890625 C-1.10289307 5.91975098 -1.10812988 5.05043945 -1.11352539 4.15478516 C-1 2 -1 2 0 0 Z " fill="#352821" transform="translate(346,116)"/>
<path d="M0 0 C0.90492187 0.2165625 0.90492187 0.2165625 1.828125 0.4375 C2.62734375 0.623125 3.4265625 0.80875 4.25 1 C5.03890625 1.185625 5.8278125 1.37125 6.640625 1.5625 C9.25556002 2.12154828 9.25556002 2.12154828 13 2 C13.33 1.34 13.66 0.68 14 0 C17.3 0.66 20.6 1.32 24 2 C24 2.66 24 3.32 24 4 C25.134375 4.268125 26.26875 4.53625 27.4375 4.8125 C28.613125 5.204375 29.78875 5.59625 31 6 C31.33 6.99 31.66 7.98 32 9 C29.92553029 8.55547078 28.23108857 8.14229592 26.4140625 7.0234375 C22.76504799 5.47644429 19.0486295 5.34228755 15.125 5 C9.79371536 4.53035992 5.04361323 3.94608871 0 2 C0 1.34 0 0.68 0 0 Z " fill="#C3C8D1" transform="translate(60,130)"/>
<path d="M0 0 C-1.25535985 3.76607955 -2.52883585 4.26441793 -6 6 C-6.99 6 -7.98 6 -9 6 C-9.33 6.99 -9.66 7.98 -10 9 C-11.68652344 10.07495117 -11.68652344 10.07495117 -13.859375 11.04296875 C-14.64570313 11.39423828 -15.43203125 11.74550781 -16.2421875 12.10742188 C-17.48355469 12.64206055 -17.48355469 12.64206055 -18.75 13.1875 C-19.56210938 13.55552734 -20.37421875 13.92355469 -21.2109375 14.30273438 C-25.3826975 16.13382447 -28.38000196 17.21336323 -33 17 C-29.92482188 12.99294972 -25.0640896 12.25701693 -20.44921875 10.89453125 C-16.86498845 9.78462167 -14.43314662 8.88401724 -12 6 C-6.55555556 3 -6.55555556 3 -4 3 C-4 2.34 -4 1.68 -4 1 C-2 0 -2 0 0 0 Z " fill="#C2C8CF" transform="translate(189,102)"/>
<path d="M0 0 C0.81082031 -0.00773438 1.62164062 -0.01546875 2.45703125 -0.0234375 C3.23691406 -0.02085937 4.01679687 -0.01828125 4.8203125 -0.015625 C5.52687988 -0.01336914 6.23344727 -0.01111328 6.96142578 -0.00878906 C8.875 0.25 8.875 0.25 11.875 2.25 C10.01875 2.2190625 10.01875 2.2190625 8.125 2.1875 C3.89913874 2.135608 3.89913874 2.135608 -0.125 3.25 C-0.455 4.24 -0.785 5.23 -1.125 6.25 C-3.435 6.58 -5.745 6.91 -8.125 7.25 C-7.465 5.93 -6.805 4.61 -6.125 3.25 C-8.765 3.58 -11.405 3.91 -14.125 4.25 C-14.125 3.59 -14.125 2.93 -14.125 2.25 C-9.4380516 -0.14091295 -5.13226258 -0.04942789 0 0 Z " fill="#BAC0CA" transform="translate(105.125,185.75)"/>
<path d="M0 0 C2.96455218 0.70714089 5.84664411 1.57536437 8.75 2.5 C11.95602919 3.4853825 14.90897521 4.17407305 18.25 4.4375 C22.49306888 5.07396033 24.54698276 6.54452108 28 9 C30.7282504 9.78215588 30.7282504 9.78215588 33 10 C30 12 30 12 27.75 11.875 C25 11 25 11 21.9375 9.0625 C18.65954891 7.0569115 15.73143107 6.52119598 11.9375 6 C6.87737637 5.29526509 3.86791527 4.33070481 0 1 C0 0.67 0 0.34 0 0 Z " fill="#B8BEC7" transform="translate(156,160)"/>
<path d="M0 0 C0.33 0 0.66 0 1 0 C1 1.65 1 3.3 1 5 C3.97 5 6.94 5 10 5 C10 6.65 10 8.3 10 10 C6.37 10 2.74 10 -1 10 C-0.67 6.7 -0.34 3.4 0 0 Z " fill="#3D3B3C" transform="translate(213,132)"/>
<path d="M0 0 C5.28 0 10.56 0 16 0 C16 0.66 16 1.32 16 2 C20.455 1.505 20.455 1.505 25 1 C24.67 1.66 24.34 2.32 24 3 C17.57142857 4.28571429 17.57142857 4.28571429 15 3 C11.65153889 3.00881174 8.31474285 3.13196764 4.96875 3.2578125 C3.9890625 3.17273438 3.009375 3.08765625 2 3 C1.34 2.01 0.68 1.02 0 0 Z " fill="#C5CAD4" transform="translate(11,124)"/>
<path d="M0 0 C0.33 0.66 0.66 1.32 1 2 C0.67 2.66 0.34 3.32 0 4 C1.32 3.34 2.64 2.68 4 2 C3.566875 2.7734375 3.566875 2.7734375 3.125 3.5625 C1.86248885 6.1291548 1.86248885 6.1291548 1 9.5625 C0 13 0 13 -2 16 C-2.99 16 -3.98 16 -5 16 C-3.66666667 12.66666667 -2.33333333 9.33333333 -1 6 C-1.66 6 -2.32 6 -3 6 C-2.625 3.5625 -2.625 3.5625 -2 1 C-1.34 0.67 -0.68 0.34 0 0 Z " fill="#B5BBC5" transform="translate(167,0)"/>
<path d="M0 0 C3.34373475 0.55728913 6.03312999 1.35173889 9 3 C9 4.65 9 6.3 9 8 C5.625 7.75 5.625 7.75 2 7 C0.05758039 4.4664092 0 3.21812786 0 0 Z " fill="#B8C0CB" transform="translate(112,189)"/>
<path d="M0 0 C1.33333333 0.66666667 2.66666667 1.33333333 4 2 C4.680625 2.309375 5.36125 2.61875 6.0625 2.9375 C8.12509594 4.068601 9.49629098 5.19554917 11 7 C11 7.66 11 8.32 11 9 C12.65 9.33 14.3 9.66 16 10 C16.33 11.32 16.66 12.64 17 14 C15.35 14 13.7 14 12 14 C11.814375 13.05125 11.62875 12.1025 11.4375 11.125 C10.963125 10.09375 10.48875 9.0625 10 8 C7.66989091 7.32215008 5.33640176 6.65583207 3 6 C1.0625 2.875 1.0625 2.875 0 0 Z " fill="#B4BBC5" transform="translate(26,175)"/>
<path d="M0 0 C0.33 0.99 0.66 1.98 1 3 C0.34 3.61875 -0.32 4.2375 -1 4.875 C-3.2284549 6.75637427 -3.2284549 6.75637427 -3 9 C-6.99000166 10.42500059 -10.80530429 11.40075776 -15 12 C-11.35846052 8.00605348 -7.43540359 5.15386853 -2.890625 2.234375 C-1.06873512 1.13724086 -1.06873512 1.13724086 0 0 Z " fill="#B4BAC2" transform="translate(159,11)"/>
<path d="M0 0 C2.475 0.495 2.475 0.495 5 1 C5 1.66 5 2.32 5 3 C6.65 3 8.3 3 10 3 C9.34 3.66 8.68 4.32 8 5 C9.485 5.928125 9.485 5.928125 11 6.875 C11.99 7.57625 12.98 8.2775 14 9 C14 9.66 14 10.32 14 11 C9.45531185 9.73171494 6.59648551 8.01327164 3 5 C2.01 4.67 1.02 4.34 0 4 C0 2.68 0 1.36 0 0 Z " fill="#BEC4CF" transform="translate(45,175)"/>
<path d="M0 0 C4.25742137 0.47304682 6.25705098 2.8863822 9 6 C9.33 6.99 9.66 7.98 10 9 C6.33118845 8.29445932 3.29549466 6.72264494 0 5 C0 3.35 0 1.7 0 0 Z " fill="#989FAA" transform="translate(0,149)"/>
<path d="M0 0 C4.95 0.99 4.95 0.99 10 2 C10 2.66 10 3.32 10 4 C6.7 4.66 3.4 5.32 0 6 C0 4.02 0 2.04 0 0 Z " fill="#D1D7DF" transform="translate(0,110)"/>
<path d="M0 0 C0.556875 0.28875 1.11375 0.5775 1.6875 0.875 C7.12412596 3.51984506 10.96694649 4.43876753 17 4 C16.67 5.65 16.34 7.3 16 9 C15.34 9 14.68 9 14 9 C14 8.34 14 7.68 14 7 C12.96875 6.896875 11.9375 6.79375 10.875 6.6875 C7.00269516 6.00047817 4.33201553 5.06267628 1 3 C0.67 2.01 0.34 1.02 0 0 Z " fill="#C5CBD3" transform="translate(138,232)"/>
<path d="M0 0 C3.465 1.98 3.465 1.98 7 4 C7 4.66 7 5.32 7 6 C7.99 6.33 8.98 6.66 10 7 C10.33 7.99 10.66 8.98 11 10 C10.2265625 9.566875 10.2265625 9.566875 9.4375 9.125 C6.37643275 7.71219973 3.25055082 6.8751483 0 6 C0 4.02 0 2.04 0 0 Z " fill="#B7BDC8" transform="translate(389,164)"/>
<path d="M0 0 C0.99 0.495 0.99 0.495 2 1 C2.47597366 3.70599842 2.84093629 6.33595404 3.125 9.0625 C3.21136719 9.82111328 3.29773438 10.57972656 3.38671875 11.36132812 C3.59939517 13.23996986 3.80075459 15.11988636 4 17 C3.01 17.66 2.02 18.32 1 19 C0.67 12.73 0.34 6.46 0 0 Z " fill="#2D221C" transform="translate(344,24)"/>
<path d="M0 0 C3.33333333 1.66666667 6.66666667 3.33333333 10 5 C10 5.66 10 6.32 10 7 C6.7 6.67 3.4 6.34 0 6 C0 4.02 0 2.04 0 0 Z " fill="#969CA7" transform="translate(389,154)"/>
<path d="M0 0 C1.98 0.99 3.96 1.98 6 3 C5.484375 3.4125 4.96875 3.825 4.4375 4.25 C3.963125 4.8275 3.48875 5.405 3 6 C3.22757731 8.16299211 3.22757731 8.16299211 4 10 C2.68 9.67 1.36 9.34 0 9 C0 6.03 0 3.06 0 0 Z " fill="#AAB0BC" transform="translate(0,165)"/>
<path d="M0 0 C1.98 0.66 3.96 1.32 6 2 C6 5 6 5 5 8 C2.525 7.01 2.525 7.01 0 6 C0 4.02 0 2.04 0 0 Z " fill="#BAC1CD" transform="translate(0,154)"/>
<path d="M0 0 C0.99 0 1.98 0 3 0 C3 0.99 3 1.98 3 3 C-0.90748231 6.19703098 -4.07008655 6.28999491 -9 6 C-8.67 5.01 -8.34 4.02 -8 3 C-5.36 3 -2.72 3 0 3 C0 2.01 0 1.02 0 0 Z " fill="#CCD0D8" transform="translate(112,28)"/>
<path d="M0 0 C3.3 0 6.6 0 10 0 C10 1.98 10 3.96 10 6 C6.66666667 4.33333333 3.33333333 2.66666667 0 1 C0 0.67 0 0.34 0 0 Z " fill="#A7ACB7" transform="translate(391,149)"/>
<path d="M0 0 C2.31 0 4.62 0 7 0 C7 0.66 7 1.32 7 2 C8.134375 2.268125 9.26875 2.53625 10.4375 2.8125 C11.613125 3.204375 12.78875 3.59625 14 4 C14.33 4.99 14.66 5.98 15 7 C12.85324409 6.53998088 11.06969887 6.03717273 9.125 5 C6.4617351 3.74669887 3.90277671 3.39583319 1 3 C0.67 2.01 0.34 1.02 0 0 Z " fill="#CED4DB" transform="translate(77,132)"/>
<path d="M0 0 C0.66 0 1.32 0 2 0 C2.33 3.3 2.66 6.6 3 10 C2.67 10 2.34 10 2 10 C1.67 13.3 1.34 16.6 1 20 C0.67 20 0.34 20 0 20 C0 13.4 0 6.8 0 0 Z " fill="#32302E" transform="translate(300,54)"/>
<path d="M0 0 C0.99 0 1.98 0 3 0 C3 0.66 3 1.32 3 2 C-0.54666074 4.81877463 -4.61177842 7.81951928 -9.22265625 8.16796875 C-11.125 7.875 -11.125 7.875 -14 7 C-11 6 -11 6 -8 7 C-8 6.34 -8 5.68 -8 5 C-6.20963542 3.99088542 -4.41927083 2.98177083 -2.62890625 1.97265625 C-1.02121854 1.1027487 -1.02121854 1.1027487 0 0 Z " fill="#B4BAC1" transform="translate(186,211)"/>
<path d="M0 0 C5.41963293 2.13500691 10.82796044 4.31053943 16 7 C12.52128379 8.15957207 11.65780355 7.77456651 8.3125 6.5625 C7.50425781 6.27503906 6.69601563 5.98757812 5.86328125 5.69140625 C4.94095703 5.34916016 4.94095703 5.34916016 4 5 C4 4.34 4 3.68 4 3 C2.68 2.67 1.36 2.34 0 2 C0 1.34 0 0.68 0 0 Z " fill="#ACB2BD" transform="translate(29,168)"/>
<path d="M0 0 C2.5477528 0.47180607 4.20577224 1.12662907 6.4375 2.5 C9.03026793 4.01771781 11.04929976 4.57847139 14 5 C11 7 11 7 8.75 6.875 C5.13201254 5.72382217 2.24429205 3.97202066 -1 2 C-0.67 1.34 -0.34 0.68 0 0 Z " fill="#C3C9D1" transform="translate(175,165)"/>
<path d="M0 0 C2.31 0.33 4.62 0.66 7 1 C7 1.66 7 2.32 7 3 C8.65 3 10.3 3 12 3 C12 3.66 12 4.32 12 5 C9.39517051 5.94721072 7.69325299 6.30222393 5.109375 5.17578125 C3.37417127 4.17063275 1.68359577 3.0893855 0 2 C0 1.34 0 0.68 0 0 Z " fill="#C5CBD3" transform="translate(389,111)"/>
<path d="M0 0 C0.99 0 1.98 0 3 0 C3 1.32 3 2.64 3 4 C1.35 4.33 -0.3 4.66 -2 5 C-2 4.34 -2 3.68 -2 3 C-3.65 3 -5.3 3 -7 3 C-7 2.34 -7 1.68 -7 1 C-4.69 1.33 -2.38 1.66 0 2 C0 1.34 0 0.68 0 0 Z " fill="#B5BCC5" transform="translate(98,206)"/>
<path d="M0 0 C-1.98 0.99 -1.98 0.99 -4 2 C-3.01 2.33 -2.02 2.66 -1 3 C-0.67 3.99 -0.34 4.98 0 6 C-1.98 6 -3.96 6 -6 6 C-7 1.125 -7 1.125 -7 0 C-2.25 -1.125 -2.25 -1.125 0 0 Z " fill="#A6AEB6" transform="translate(111,188)"/>
<path d="M0 0 C0.66 0.33 1.32 0.66 2 1 C1.236875 1.45375 0.47375 1.9075 -0.3125 2.375 C-2.23632814 3.53824492 -4.12941224 4.7529415 -6 6 C-8.48046875 5.9765625 -8.48046875 5.9765625 -11.1875 5.625 C-12.53908203 5.45871094 -12.53908203 5.45871094 -13.91796875 5.2890625 C-14.94857422 5.14597656 -14.94857422 5.14597656 -16 5 C-16 4.67 -16 4.34 -16 4 C-15.18015625 3.87882812 -14.3603125 3.75765625 -13.515625 3.6328125 C-12.43796875 3.46523438 -11.3603125 3.29765625 -10.25 3.125 C-9.18265625 2.96257813 -8.1153125 2.80015625 -7.015625 2.6328125 C-4.0461587 2.1429644 -4.0461587 2.1429644 -1.734375 0.8671875 C-1.16203125 0.58101562 -0.5896875 0.29484375 0 0 Z " fill="#C2C8CF" transform="translate(142,23)"/>
<path d="M0 0 C1.2065625 0.0309375 1.2065625 0.0309375 2.4375 0.0625 C2.1075 0.7225 1.7775 1.3825 1.4375 2.0625 C2.7575 2.7225 4.0775 3.3825 5.4375 4.0625 C5.4375 4.7225 5.4375 5.3825 5.4375 6.0625 C2.0625 5.8125 2.0625 5.8125 -1.5625 5.0625 C-3 3 -3 3 -3.5625 1.0625 C-2.5625 0.0625 -2.5625 0.0625 0 0 Z " fill="#A9AEB7" transform="translate(107.5625,214.9375)"/>
<path d="M0 0 C5.875 2.75 5.875 2.75 7 5 C5.35 5.33 3.7 5.66 2 6 C2 5.34 2 4.68 2 4 C-0.475 3.01 -0.475 3.01 -3 2 C-2.01 1.34 -1.02 0.68 0 0 Z " fill="#A8B0BA" transform="translate(43,188)"/>
<path d="M0 0 C1.1446875 0.2784375 1.1446875 0.2784375 2.3125 0.5625 C5.08967375 1.22819173 5.08967375 1.22819173 8 0 C8.66 0.33 9.32 0.66 10 1 C10 2.32 10 3.64 10 5 C5.2482602 4.56802365 3.07999946 3.67230705 0 0 Z " fill="#B7BDC9" transform="translate(391,154)"/>
<path d="M0 0 C0 0.66 0 1.32 0 2 C-0.66 2 -1.32 2 -2 2 C-2.33 2.66 -2.66 3.32 -3 4 C-5.64 4 -8.28 4 -11 4 C-11 3.34 -11 2.68 -11 2 C-7.17010894 0.19769832 -4.21878192 -0.19622241 0 0 Z " fill="#A8AFB8" transform="translate(102,186)"/>
<path d="M0 0 C0.66 0 1.32 0 2 0 C2 0.66 2 1.32 2 2 C2.94875 2.12375 3.8975 2.2475 4.875 2.375 C8 3 8 3 10 5 C9.34 5.66 8.68 6.32 8 7 C4.7 5.35 1.4 3.7 -2 2 C-1.34 1.34 -0.68 0.68 0 0 Z " fill="#ADB2BC" transform="translate(16,177)"/>
<path d="M0 0 C5.06017356 0.4464859 7.43305514 2.595189 11 6 C11.33 6.99 11.66 7.98 12 9 C8.01636642 7.67212214 5.89369166 5.99014805 3 3 C2.01 2.67 1.02 2.34 0 2 C0 1.34 0 0.68 0 0 Z " fill="#C6CDD6" transform="translate(10,155)"/>
<path d="M0 0 C0.33 0.99 0.66 1.98 1 3 C1.66 3 2.32 3 3 3 C6.34097516 5.73352513 7.52354792 7.71193127 8 12 C6.85373678 11.02133662 5.70800212 10.04205413 4.5625 9.0625 C3.92441406 8.51722656 3.28632813 7.97195312 2.62890625 7.41015625 C1.73008851 6.63204305 0.84063472 5.84063472 0 5 C-0.04063832 3.33382885 -0.042721 1.66611905 0 0 Z " fill="#C8CDD4" transform="translate(393,98)"/>
<path d="M0 0 C2.64 0.66 5.28 1.32 8 2 C7.01 3.32 6.02 4.64 5 6 C4.01 5.67 3.02 5.34 2 5 C2 4.34 2 3.68 2 3 C1.34 3 0.68 3 0 3 C0 2.01 0 1.02 0 0 Z " fill="#C4CBD4" transform="translate(169,229)"/>
<path d="M0 0 C3.181798 1.06059933 6.0173094 2.47551369 9 4 C9 4.33 9 4.66 9 5 C6.36 5 3.72 5 1 5 C0.34 3.68 -0.32 2.36 -1 1 C-0.67 0.67 -0.34 0.34 0 0 Z " fill="#ABB1BB" transform="translate(48,195)"/>
<path d="M0 0 C-8.261959 4.59225513 -8.261959 4.59225513 -13 4 C-9.80252047 -0.13791468 -4.89181987 -1.63060662 0 0 Z " fill="#C8CDD5" transform="translate(169,115)"/>
<path d="M0 0 C3.26520744 0.80075325 6.50746067 1.67466185 9.75 2.5625 C11.22726563 2.96662109 11.22726563 2.96662109 12.734375 3.37890625 C13.85585937 3.68634766 13.85585937 3.68634766 15 4 C15 4.33 15 4.66 15 5 C8.53673535 5.45356243 5.39068413 4.59378942 0 1 C0 0.67 0 0.34 0 0 Z " fill="#C6CAD3" transform="translate(92,20)"/>
<path d="M0 0 C3.34019306 0.59646305 5.50470633 1.68294159 8 4 C8 4.99 8 5.98 8 7 C4.21388773 6.45912682 2.44599233 4.88277668 0 2 C0 1.34 0 0.68 0 0 Z " fill="#989EA8" transform="translate(179,228)"/>
<path d="M0 0 C2 2 2 2 2 4 C2.99 4.66 3.98 5.32 5 6 C3.35 6.33 1.7 6.66 0 7 C0 6.34 0 5.68 0 5 C-0.66 5 -1.32 5 -2 5 C-2 4.34 -2 3.68 -2 3 C-2.66 3 -3.32 3 -4 3 C-4 2.34 -4 1.68 -4 1 C-2.125 0.375 -2.125 0.375 0 0 Z " fill="#B9C1CB" transform="translate(28,166)"/>
<path d="M0 0 C0.99 0.33 1.98 0.66 3 1 C2.67 2.65 2.34 4.3 2 6 C1.01 6 0.02 6 -1 6 C-1.66 6.66 -2.32 7.32 -3 8 C-3.33 7.01 -3.66 6.02 -4 5 C-3.67 4.34 -3.34 3.68 -3 3 C-2.34 3 -1.68 3 -1 3 C-0.67 2.01 -0.34 1.02 0 0 Z " fill="#BFC5CF" transform="translate(163,5)"/>
<path d="M0 0 C0.99 0.33 1.98 0.66 3 1 C2.67 2.65 2.34 4.3 2 6 C2.99 6.33 3.98 6.66 5 7 C3.68 7.33 2.36 7.66 1 8 C1 6.68 1 5.36 1 4 C-0.32 3.34 -1.64 2.68 -3 2 C-2.01 1.34 -1.02 0.68 0 0 Z " fill="#B3BAC7" transform="translate(123,188)"/>
<path d="M0 0 C0.33 0 0.66 0 1 0 C1.66 2.64 2.32 5.28 3 8 C1.68 7.34 0.36 6.68 -1 6 C-1 5.34 -1 4.68 -1 4 C-2.32 3.67 -3.64 3.34 -5 3 C-4.360625 2.690625 -3.72125 2.38125 -3.0625 2.0625 C-1.06389179 1.1654837 -1.06389179 1.1654837 0 0 Z " fill="#989FA8" transform="translate(111,187)"/>
<path d="M0 0 C1.32 0 2.64 0 4 0 C4 0.66 4 1.32 4 2 C4.78375 2.144375 5.5675 2.28875 6.375 2.4375 C9 3 9 3 11 4 C11 4.66 11 5.32 11 6 C6.48986609 5.46939601 3.61621781 3.69113883 0 1 C0 0.67 0 0.34 0 0 Z " fill="#CED3DB" transform="translate(56,3)"/>
<path d="M0 0 C4.95 0.33 9.9 0.66 15 1 C15 1.33 15 1.66 15 2 C8.565 2.495 8.565 2.495 2 3 C1.34 2.01 0.68 1.02 0 0 Z " fill="#B9BEC8" transform="translate(11,124)"/>
<path d="M0 0 C0.99 0 1.98 0 3 0 C3.33 2.31 3.66 4.62 4 7 C2.68 6.34 1.36 5.68 0 5 C0 3.35 0 1.7 0 0 Z " fill="#515154" transform="translate(216,113)"/>
<path d="M0 0 C0.66 0 1.32 0 2 0 C3.60725635 3.21451269 3.05748185 6.43612536 3 10 C2.34 10 1.68 10 1 10 C0.67 6.7 0.34 3.4 0 0 Z " fill="#B9BEC8" transform="translate(186,231)"/>
<path d="M0 0 C1.875 0.1875 1.875 0.1875 4 1 C5.25 3.5625 5.25 3.5625 6 6 C4.35 6 2.7 6 1 6 C0.67 4.02 0.34 2.04 0 0 Z " fill="#CBD1D8" transform="translate(149,205)"/>
<path d="M0 0 C2.97 0.99 5.94 1.98 9 3 C9 3.66 9 4.32 9 5 C5.65626525 4.44271087 2.96687001 3.64826111 0 2 C0 1.34 0 0.68 0 0 Z " fill="#CBD2D9" transform="translate(125,225)"/>
<path d="M0 0 C0 0.66 0 1.32 0 2 C-5.41538462 3.23076923 -5.41538462 3.23076923 -8.375 2.0625 C-8.91125 1.711875 -9.4475 1.36125 -10 1 C-6.52674819 -0.1577506 -3.63932552 -0.06866652 0 0 Z " fill="#CCD0DB" transform="translate(189,0)"/>
<path d="M0 0 C1.3125 2.0625 1.3125 2.0625 2 4 C1.01 4.495 1.01 4.495 0 5 C-0.33 3.68 -0.66 2.36 -1 1 C-1.61875 1.20625 -2.2375 1.4125 -2.875 1.625 C-3.57625 1.74875 -4.2775 1.8725 -5 2 C-5.66 1.34 -6.32 0.68 -7 0 C-4.25509788 -1.37245106 -2.87939419 -0.93580311 0 0 Z " fill="#D2D9E1" transform="translate(104,211)"/>
<path d="M0 0 C2.31 0 4.62 0 7 0 C7 1.32 7 2.64 7 4 C4.69 3.67 2.38 3.34 0 3 C0 2.01 0 1.02 0 0 Z " fill="#B1B9C4" transform="translate(114,193)"/>
<path d="M0 0 C0.66 0 1.32 0 2 0 C2.66 1.98 3.32 3.96 4 6 C3.34 6 2.68 6 2 6 C2 5.34 2 4.68 2 4 C0.68 4.33 -0.64 4.66 -2 5 C-1.125 1.125 -1.125 1.125 0 0 Z " fill="#99A0AA" transform="translate(16,173)"/>
<path d="M0 0 C1.875 0.25 1.875 0.25 4 1 C5.25 3.0625 5.25 3.0625 6 5 C4.35 4.67 2.7 4.34 1 4 C0.67 2.68 0.34 1.36 0 0 Z " fill="#A7AEB9" transform="translate(0,149)"/>
<path d="M0 0 C1.32 0.33 2.64 0.66 4 1 C4 1.66 4 2.32 4 3 C4.99 3.33 5.98 3.66 7 4 C7 4.99 7 5.98 7 7 C5 7 5 7 2.375 4.625 C0 2 0 2 0 0 Z " fill="#C1C7CF" transform="translate(101,208)"/>
<path d="M0 0 C2.92879371 0.62759865 5.36095629 1.58622659 8 3 C8 3.66 8 4.32 8 5 C2.25 3.125 2.25 3.125 0 2 C0 1.34 0 0.68 0 0 Z " fill="#B5BCC5" transform="translate(51,181)"/>
<path d="M0 0 C0.99 0.495 0.99 0.495 2 1 C3.11421833 4.64653273 2.94296589 7.33291043 2 11 C1.67 11 1.34 11 1 11 C0.67 7.37 0.34 3.74 0 0 Z " fill="#352921" transform="translate(344,24)"/>
</svg>
